<svg id="visual" xmlns="http://www.w3.org/2000/svg" viewBox="0 0 1023.51 540"><defs><style>.cls-1{fill:#171819;}.cls-2{fill:none;stroke:#bdb2ff;stroke-width:10px;}</style></defs><rect class="cls-1" x="39" width="960" height="540"/><path class="cls-2" d="M65.6,185c10.7,10.2,16.8,25.6,16.5,40.7a61.08,61.08,0,0,1-17.6,41c-10.7,10.8-25.6,17.8-40.3,17.6S-5,276.8-15.9,265.9-34,240.5-34,225.9s7-29.1,17.9-39.3a62.11,62.11,0,0,1,40.5-16.1C39.4,170.1,54.8,174.9,65.6,185Z" transform="translate(39)"/><path class="cls-2" d="M833.2,29.7a26.46,26.46,0,0,1,7.4,19.1c-.2,6.8-3.5,13.4-8.4,18.5s-11.6,8.5-18.1,8.5-13.1-3.7-18-8.8-8.2-11.5-8.2-18,3.3-13,8.2-18.1,11.4-8.7,18.2-9A25.6,25.6,0,0,1,833.2,29.7Z" transform="translate(39)"/><path class="cls-2" d="M903,237.3c8.5,9.1,12.7,21.9,12.5,34.5s-4.9,24.8-13.4,33-20.8,12.3-33,12.2-24.5-4.2-32.8-12.4-12.6-20.4-12.7-32.7,3.9-24.8,12.2-34a46.8,46.8,0,0,1,33.4-15.3A46.29,46.29,0,0,1,903,237.3Z" transform="translate(39)"/><path class="cls-2" d="M815.9,385.7a28.08,28.08,0,0,1,7.4,18.8c0,7-2.5,14.1-7.3,18.5s-11.8,6.3-18.8,6.3-14-1.9-18.6-6.4-6.9-11.4-6.9-18.4,2.1-14.1,6.8-19a25.82,25.82,0,0,1,18.6-7.7A27.25,27.25,0,0,1,815.9,385.7Z" transform="translate(39)"/><path class="cls-2" d="M162.2,88.4c5.2,5.4,8.7,12.4,8.9,19.6a28.38,28.38,0,0,1-8.1,20,27.91,27.91,0,0,1-40.4.3,29.09,29.09,0,0,1-.1-41A27.64,27.64,0,0,1,142.7,79C150,79.3,157,83.1,162.2,88.4Z" transform="translate(39)"/><path class="cls-2" d="M959.1,430.8c8.7,7.7,13.8,20,13.5,31.9s-6,23.6-14.7,32.2-20.3,14.4-31.9,14.4-23.2-5.8-31.6-14.5-13.6-20.2-13.7-31.9a43,43,0,0,1,13.4-31.1c8.4-7.7,20.2-11.5,32.2-11.7S950.5,423,959.1,430.8Z" transform="translate(39)"/><path class="cls-2" d="M39.7,347.9c4.5,4.2,7.4,10.2,7.2,16.1s-3.4,11.6-7.9,16-10.2,7.5-15.9,7.5-11.4-3-15.7-7.5S.4,369.9.3,364.2a22.91,22.91,0,0,1,6.9-15.8,23.49,23.49,0,0,1,16-7A23.89,23.89,0,0,1,39.7,347.9Z" transform="translate(39)"/><path class="cls-2" d="M79.1,27.2c4.3,4.5,6.2,10.9,5.9,17.1A26.18,26.18,0,0,1,78,61c-4.2,4.6-10.1,8-16,8s-11.9-3.3-16.3-7.9-7.1-10.6-7.1-16.4S41.6,33,46,28.5s10.2-7.6,16.3-7.9A21.51,21.51,0,0,1,79.1,27.2Z" transform="translate(39)"/><path class="cls-2" d="M82.4,439.5c8,7,12.7,18.3,12.6,29.4s-5.1,22-13.1,29.9S63,511.6,52.4,511.2s-20.8-6-28.5-13.9-13-18.1-13.3-28.6a37.81,37.81,0,0,1,12.1-28.4c7.7-7,18.5-10.3,29.5-10.5S74.5,432.5,82.4,439.5Z" transform="translate(39)"/><path class="cls-2" d="M965.5,88.3c9.3,9.5,14.3,23.1,14,36.4s-5.9,26.3-15.2,36.5-22.3,17.3-35.6,17.6-27-6.2-36.5-16.4a52.74,52.74,0,0,1,37-88.8A50.53,50.53,0,0,1,965.5,88.3Z" transform="translate(39)"/><path class="cls-2" d="M146.9,291.7a28.08,28.08,0,0,1,7.4,18.8c0,7-2.5,14.1-7.3,18.5s-11.8,6.3-18.8,6.3-14-1.9-18.6-6.4-6.9-11.4-6.9-18.4,2.1-14.1,6.8-19a25.82,25.82,0,0,1,18.6-7.7A27.25,27.25,0,0,1,146.9,291.7Z" transform="translate(39)"/><path class="cls-2" d="M815.78,156.92c4.3,4.5,6.2,10.9,5.9,17.1a26.18,26.18,0,0,1-7,16.7c-4.2,4.6-10.1,8-16,8s-11.9-3.3-16.3-7.9-7.1-10.6-7.1-16.4,3-11.7,7.4-16.2,10.2-7.6,16.3-7.9A21.51,21.51,0,0,1,815.78,156.92Z" transform="translate(39)"/></svg>