<?xml version="1.0"?>
<svg xmlns="http://www.w3.org/2000/svg" id="Ebene_1" data-name="Ebene 1" viewBox="0 0 1960 1201.05799">
    <defs>
        <style>
            .cls-1{fill:#9bf6ff;}.cls-1,.cls-2,.cls-4,.cls-5,.cls-6,.cls-7,.cls-8,.cls-9{stroke:#f2f2f2;}.cls-1,.cls-10,.cls-11,.cls-2,.cls-4,.cls-6,.cls-8{stroke-miterlimit:10;}.cls-1,.cls-2,.cls-4,.cls-6,.cls-8{stroke-width:10px;}.cls-2,.cls-5,.cls-7,.cls-9{fill:#fff;}.cls-3{fill:#1d1d1b;}.cls-4{fill:#fdffb6;}.cls-5{stroke-miterlimit:10;stroke-width:10px;}.cls-6{fill:#caffbf;}.cls-7{stroke-miterlimit:9.99974;stroke-width:9.99974px;}.cls-8{fill:#bdb2ff;}.cls-9{stroke-miterlimit:9.99978;stroke-width:9.99978px;}.cls-10,.cls-11{fill:none;stroke:#1d1d1b;}.cls-10{stroke-width:13px;}.cls-11{stroke-width:40px;}
        </style>
    </defs>
    <g id="Blau">
        <path class="cls-1"
              d="M1583.58269,511.22015,1936.0081,714.65551a78.99763,78.99763,0,0,1,28.91693,107.8738l-423.13638,732.75113a78.99764,78.99764,0,0,1-107.87381,28.91693l-352.42542-203.43529a78.99764,78.99764,0,0,1-28.91693-107.87381l423.13639-732.75119A78.95191,78.95191,0,0,1,1583.549,511.20071Z"
              transform="translate(-20.50457 -398.71891)"/>
    </g>
    <g id="Gelb">
        <path class="cls-4"
              d="M1056.752,404.92774l400.65794,70.711a79.01037,79.01037,0,0,1,64.04649,91.49506l-146.95685,833.2828a79.01025,79.01025,0,0,1-91.49506,64.04649l-400.658-70.711a79.01039,79.01039,0,0,1-64.04656-91.49506l146.95685-833.2828A79.01052,79.01052,0,0,1,1056.752,404.92774Z"
              transform="translate(-20.50457 -398.71891)"/>
    </g>
    <g id="Grün">
        <path class="cls-6"
              d="M543.476,475.63874l400.658-70.711a79.01049,79.01049,0,0,1,91.49513,64.04652l146.95686,833.2828a79.01035,79.01035,0,0,1-64.04649,91.49506l-400.658,70.711a79.01041,79.01041,0,0,1-91.49506-64.04649L479.54234,567.1338a78.87369,78.87369,0,0,1,63.82917-91.47651Z"
              transform="translate(-20.50457 -398.71891)"/>
    </g>
    <g id="lila">
        <path class="cls-8"
              d="M64.99066,714.65544l352.4254-203.43536A79.02432,79.02432,0,0,1,525.28987,540.137l423.13645,732.75126a79.02432,79.02432,0,0,1-28.91693,107.87381L567.084,1584.19737a79.02417,79.02417,0,0,1-107.8738-28.91693L36.0737,822.41631a78.89248,78.89248,0,0,1,28.914-107.75915Z"
              transform="translate(-20.50457 -398.71891)"/>
    </g>
</svg>