<svg xmlns="http://www.w3.org/2000/svg" viewBox="0 0 1960 1200.9892">
    <defs>
        <style>
            .cls-1{fill:#9bf6ff;}.cls-1,.cls-10,.cls-2,.cls-5,.cls-6,.cls-7,.cls-8,.cls-9{stroke:#f2f2f2;}.cls-1,.cls-9{stroke-miterlimit:10;stroke-width:10px;}.cls-10,.cls-2,.cls-8{fill:#f2f2f2;}.cls-11,.cls-12,.cls-2{stroke-miterlimit:10;}.cls-2{stroke-width:10px;}.cls-3{isolation:isolate;}.cls-4{fill:#1d1d1b;}.cls-5{fill:#fdffb6;}.cls-5,.cls-7{stroke-miterlimit:10;stroke-width:10px;}.cls-6{fill:#f6f6f6;stroke-miterlimit:10;stroke-width:10px;}.cls-7{fill:#caffbf;}.cls-8{stroke-miterlimit:10;stroke-width:10px;}.cls-9{fill:#bdb2ff;}.cls-10{stroke-miterlimit:10;stroke-width:10px;}.cls-11,.cls-12{fill:none;stroke:#1d1d1b;}.cls-11{stroke-width:11px;}.cls-12{stroke-width:40px;}
        </style>
    </defs>
    <g id="Blau">
        <rect class="cls-1" x="1006.77545" y="765.2691" width="1004.06349" height="564.78566" rx="78.94465"
              transform="translate(-173.39814 1431.73748) rotate(-60)"/>
        <ellipse class="cls-2" cx="1488.30723" cy="648.90304" rx="227.81876" ry="397.61254"/>
        <g class="cls-3">
            <path class="cls-4"
                  d="M1874.30286,831.85348a37.37839,37.37839,0,0,1-12.34255-10.92838,26.60057,26.60057,0,0,1-4.911-13.23716,22.53462,22.53462,0,0,1,3.1339-13.25592,20.88591,20.88591,0,0,1,6.78184-7.27493,23.63013,23.63013,0,0,1,9.17-3.4571,25.40709,25.40709,0,0,1,10.432.5692l22.812,13.171a26.16013,26.16013,0,0,1,5.65668,8.71778,23.568,23.568,0,0,1,1.6745,9.64879,20.25244,20.25244,0,0,1-2.8151,9.34985,23.25156,23.25156,0,0,1-10.06907,9.61018,26.005,26.005,0,0,1-13.91888,2.365A37.99313,37.99313,0,0,1,1874.30286,831.85348Zm5.5905-9.68409a20.12456,20.12456,0,0,0,8.51922,2.76436,14.90582,14.90582,0,0,0,7.93568-1.44285,13.56757,13.56757,0,0,0,5.78795-5.55409,12.5353,12.5353,0,0,0,1.75172-7.383,15.96567,15.96567,0,0,0-2.69377-7.50878,23.299,23.299,0,0,0-6.51489-6.48621,22.78062,22.78062,0,0,0-8.82036-2.36725,16.60266,16.60266,0,0,0-7.84964,1.4219,12.49657,12.49657,0,0,0-5.63462,5.28493,13.27221,13.27221,0,0,0-1.88409,7.736,15.09321,15.09321,0,0,0,2.74892,7.53967A20.13,20.13,0,0,0,1879.89336,822.16939Zm6.26338-35.69732a27.46062,27.46062,0,0,1-5.41179-8.14637,20.82307,20.82307,0,0,1-1.68664-9.00789,19.04733,19.04733,0,0,1,2.65185-8.94171,21.75145,21.75145,0,0,1,9.50318-9.00568,24.69208,24.69208,0,0,1,13.18753-2.21391,39.893,39.893,0,0,1,26.471,15.2823,24.71127,24.71127,0,0,1,4.67493,12.52787,21.95544,21.95544,0,0,1-3.10853,12.84005,18.70546,18.70546,0,0,1-6.38693,6.71455,21.08913,21.08913,0,0,1-8.613,2.9894,27.521,27.521,0,0,1-9.76131-.61332Zm13.61774,1.26305a22.19087,22.19087,0,0,0,8.18939,2.21722,15.13517,15.13517,0,0,0,7.34111-1.28621,11.9342,11.9342,0,0,0,5.371-5.07645,12.39635,12.39635,0,0,0,1.07331-10.93059,19.32306,19.32306,0,0,0-19.90649-11.49317,12.38937,12.38937,0,0,0-8.92846,6.39466,11.91389,11.91389,0,0,0-1.712,7.19,15.12972,15.12972,0,0,0,2.557,7.00136A22.17117,22.17117,0,0,0,1899.77448,787.73512Z"
                  transform="translate(-20.49989 -398.75884)"/>
        </g>
        <g class="cls-3">
            <path class="cls-4"
                  d="M1118.549,1328.3773a33.99389,33.99389,0,0,1-11.2207-9.9356,24.18424,24.18424,0,0,1-4.46534-12.03368,20.48291,20.48291,0,0,1,2.8493-12.05134,18.998,18.998,0,0,1,6.16521-6.61306,21.4677,21.4677,0,0,1,8.33721-3.14273,23.08416,23.08416,0,0,1,9.48222.51736l20.73933,11.97412a23.75777,23.75777,0,0,1,5.14153,7.92575,21.42355,21.42355,0,0,1,1.52338,8.76962,18.38237,18.38237,0,0,1-2.56029,8.49936,21.13214,21.13214,0,0,1-9.15239,8.73763,23.63486,23.63486,0,0,1-12.65363,2.14994A34.5436,34.5436,0,0,1,1118.549,1328.3773Zm5.08307-8.80492a18.30256,18.30256,0,0,0,7.74264,2.51506,13.57236,13.57236,0,0,0,7.21536-1.31379,12.32147,12.32147,0,0,0,5.26177-5.04887,11.40891,11.40891,0,0,0,1.59287-6.71125,14.52119,14.52119,0,0,0-2.45-6.827,21.185,21.185,0,0,0-5.92143-5.89608,20.69977,20.69977,0,0,0-8.01841-2.15212,15.10114,15.10114,0,0,0-7.137,1.29281,11.35217,11.35217,0,0,0-5.12168,4.804,12.06383,12.06383,0,0,0-1.71311,7.03334,13.70963,13.70963,0,0,0,2.49962,6.85465A18.28205,18.28205,0,0,0,1123.63211,1319.57238Zm5.692-32.452a25.02192,25.02192,0,0,1-4.91982-7.40509,18.95889,18.95889,0,0,1-1.5333-8.18939,17.31347,17.31347,0,0,1,2.41137-8.12873,19.77414,19.77414,0,0,1,8.63945-8.18718,22.46062,22.46062,0,0,1,11.98846-2.01315,36.26679,36.26679,0,0,1,24.06406,13.89461,22.46146,22.46146,0,0,1,4.25134,11.38837,19.96284,19.96284,0,0,1-2.82614,11.67187,16.99987,16.99987,0,0,1-5.8067,6.10456,19.15842,19.15842,0,0,1-7.83088,2.71691,25.00335,25.00335,0,0,1-8.87332-.55707Zm12.38116,1.14832a20.16213,20.16213,0,0,0,7.44369,2.01536,13.7776,13.7776,0,0,0,6.676-1.16818,10.85053,10.85053,0,0,0,4.8801-4.61536,11.27217,11.27217,0,0,0,.97734-9.9367,17.56717,17.56717,0,0,0-18.09741-10.44853,11.26843,11.26843,0,0,0-8.11769,5.81332,10.85131,10.85131,0,0,0-1.55647,6.53585,13.76166,13.76166,0,0,0,2.32533,6.36487A20.17076,20.17076,0,0,0,1141.70526,1288.26869Z"
                  transform="translate(-20.49989 -398.75884)"/>
        </g>
        <g class="cls-3">
            <path d="M1423.11633,1196.20311q-28.96292-16.72185-44.88281-39.738-15.93589-23.01943-17.85914-48.137-1.93759-25.10925,11.395-48.202a75.93058,75.93058,0,0,1,24.66415-26.45558,85.94848,85.94848,0,0,1,33.34552-12.5731,92.41252,92.41252,0,0,1,37.9322,2.07493l82.954,47.89316a95.11905,95.11905,0,0,1,20.56835,31.6997,85.64468,85.64468,0,0,1,6.0924,35.0818,73.5707,73.5707,0,0,1-10.24,34.00186q-13.78155,23.87157-36.61179,34.94832-22.82915,11.07784-50.61671,8.60195Q1452.06766,1212.91394,1423.11633,1196.20311Zm20.33229-35.21747a73.15806,73.15806,0,0,0,30.975,10.058,54.22343,54.22343,0,0,0,28.857-5.25185,49.31213,49.31213,0,0,0,21.0493-20.19329,45.62252,45.62252,0,0,0,6.36928-26.845q-1.09041-13.93377-9.79771-27.30827a84.7207,84.7207,0,0,0-23.6857-23.58752q-16.33465-7.86453-32.07475-8.60526a60.34884,60.34884,0,0,0-28.54925,5.168q-12.80365,5.912-20.48452,19.21595-7.91251,13.70211-6.85133,28.13118a54.84981,54.84981,0,0,0,9.99406,27.42188A73.14043,73.14043,0,0,0,1443.44862,1160.98564Zm22.77013-129.80584a100.00385,100.00385,0,0,1-19.67926-29.62257,75.81586,75.81586,0,0,1-6.131-32.75646,69.26586,69.26586,0,0,1,9.64328-32.5193q12.87645-22.30131,34.55672-32.74213,21.6775-10.4375,47.95273-8.05371,26.26914,2.38765,53.66456,18.2011,27.38439,15.81013,42.59389,37.374,15.19626,21.565,17.00313,45.5546,1.79364,24.00063-11.30453,46.68968a68.01126,68.01126,0,0,1-23.22682,24.416,76.716,76.716,0,0,1-31.32023,10.87323,100.16232,100.16232,0,0,1-35.49325-2.23157Zm49.52243,4.59109a80.62456,80.62456,0,0,0,29.77811,8.06254,55.06608,55.06608,0,0,0,26.69715-4.67162q12.07064-5.553,19.53033-18.46474,11.293-19.56122,3.90276-39.74458-7.39957-20.18172-29.30488-32.83148-21.91743-12.65473-43.08476-8.96266-21.18277,3.69151-32.46856,23.25328-7.45583,12.91286-6.22588,26.1445a54.9568,54.9568,0,0,0,9.30352,25.45728A80.53939,80.53939,0,0,0,1515.74118,1035.77089Z"
                  transform="translate(-20.49989 -398.75884)"/>
        </g>
    </g>
    <g id="Gelb">
        <path class="cls-5"
              d="M746.84874,652.31211H1593.023a78.94465,78.94465,0,0,1,78.94465,78.94465v406.89635a78.94465,78.94465,0,0,1-78.94465,78.94465H746.84881a78.94465,78.94465,0,0,1-78.94465-78.94465V731.25669a78.94458,78.94458,0,0,1,78.94458-78.94458Z"
              transform="translate(25.7741 1525.79823) rotate(-80)"/>
        <ellipse class="cls-6" cx="1169.93564" cy="934.70474" rx="227.81876" ry="397.61254"
                 transform="translate(-269.63199 57.75233) rotate(-20)"/>
        <g class="cls-3">
            <path class="cls-4"
                  d="M1431.16232,602.84172q-10.4011-1.83666-16.78031-8.57879-6.377-6.741-8.53356-17.40576-2.15434-10.66254.203-24.00009,2.39924-13.58133,8.06585-22.801,5.6655-9.21969,13.95859-13.30666t18.69308-2.25032q10.52023,1.85982,16.85091,8.52915,6.32736,6.67152,8.50708,17.21162,2.17421,10.54174-.24709,24.245-2.37608,13.4622-8.04378,22.67967-5.66552,9.218-13.90785,13.37726Q1441.68477,604.70154,1431.16232,602.84172Zm1.94587-11.01222q9.66644,1.7076,16.10742-6.17624,6.43657-7.88108,9.20645-23.5456,2.80957-15.90445-.56258-25.39771-3.36887-9.491-13.0364-11.19864-9.544-1.68609-15.96182,6.07586-6.42,7.76194-9.2263,23.668-2.76989,15.66453.58023,25.27526Q1423.56088,590.14563,1433.10819,591.8295Z"
                  transform="translate(-20.49989 -398.75884)"/>
        </g>
        <g class="cls-3">
            <path class="cls-4"
                  d="M899.10665,1331.96347a26.723,26.723,0,0,1-15.258-7.8011,31.50658,31.50658,0,0,1-7.76029-15.82724,58.66341,58.66341,0,0,1,.18422-21.82477q2.18247-12.35028,7.33339-20.73382a31.17972,31.17972,0,0,1,12.69334-12.09876,26.94484,26.94484,0,0,1,16.99762-2.04515q9.56715,1.68941,15.32422,7.75478a31.40161,31.40161,0,0,1,7.73381,15.65074q1.9773,9.587-.22282,22.04649-2.16263,12.24108-7.31464,20.6224a31.74708,31.74708,0,0,1-12.647,12.165Q908.67492,1333.65452,899.10665,1331.96347Zm1.76826-10.01392q8.78948,1.55206,14.64582-5.61586,5.85248-7.16793,8.37251-21.41112,2.55477-14.46159-.51074-23.09444-3.0644-8.63063-11.85388-10.18268-8.67861-1.5322-14.51455,5.52433-5.83758,7.05868-8.39126,21.5225-2.51671,14.24319.52839,22.983Q892.19575,1320.4168,900.87491,1321.94955Z"
                  transform="translate(-20.49989 -398.75884)"/>
        </g>
        <g class="cls-3">
            <path class="cls-4"
                  d="M1140.12011,1103.63232q-37.83182-6.68312-61.03326-31.20552-23.20639-24.51357-31.03784-63.30894-7.843-38.78488.73466-87.29689,8.72661-49.40109,29.33687-82.93414,20.60531-33.53305,50.77114-48.39838,30.16419-14.862,67.99159-8.18278,38.272,6.76089,61.29579,31.0224,23.01282,24.26538,30.93415,62.60186,7.90921,38.34476-.89351,88.18819-8.64882,48.96263-29.25744,82.48849-20.61853,33.53139-50.588,48.65982Q1178.3904,1110.39651,1140.12011,1103.63232Zm7.07526-40.05456q35.153,6.20823,58.58217-22.46567,23.41655-28.67006,33.48672-85.64225,10.2191-57.84972-2.03853-92.37775-12.26258-34.52088-47.41772-40.73076-34.7128-6.13377-58.05931,22.09834-23.34705,28.22991-33.565,86.0879-10.06521,56.97276,2.11684,91.9321Q1112.477,1057.4473,1147.19537,1063.57776Z"
                  transform="translate(-20.49989 -398.75884)"/>
        </g>
    </g>
    <g id="Grün">
        <path class="cls-7"
              d="M627.6164,432.6728h406.89649a78.94458,78.94458,0,0,1,78.94458,78.94458v846.17425a78.94465,78.94465,0,0,1-78.94465,78.94465H627.6164a78.94458,78.94458,0,0,1-78.94458-78.94458V511.61738A78.94458,78.94458,0,0,1,627.6164,432.6728Z"
              transform="translate(-170.18389 -240.24571) rotate(-10)"/>
        <ellipse class="cls-8" cx="831.064" cy="934.70457" rx="227.81877" ry="397.61254"
                 transform="translate(-426.88437 354.11817) rotate(-40)"/>
        <g class="cls-3">
            <path class="cls-4"
                  d="M963.95,530.38314l-9.31566-52.73686-2.4588-17.483-11.83733,13.69936-13.13348,14.93814-2.70148-15.29554L952.4105,444.3504l9.42155-1.66458L976.91911,528.092Zm-28.50954,5.03563-1.94587-11.01221,60.44531-10.67688,1.94476,11.01222Z"
                  transform="translate(-20.49989 -398.75884)"/>
        </g>
        <g class="cls-3">
            <path class="cls-4"
                  d="M711.38491,1399.33181l-8.47179-47.95384-2.23377-15.89783-10.76512,12.45617-11.94213,13.58354-2.4566-13.90785,25.37675-26.51183,8.56665-1.51345,13.71922,77.66134Zm-25.92388,4.579-1.76937-10.01281,54.964-9.70946,1.76827,10.01281Z"
                  transform="translate(-20.49989 -398.75884)"/>
        </g>
        <g class="cls-3">
            <path d="M856.38039,1098.73787,822.49546,906.92034l-8.9384-63.59024-43.05718,49.8291-47.76962,54.33194-9.82749-55.63139L814.41086,785.81352l34.26881-6.05379L903.55654,1090.404Zm-103.69553,18.318-7.07637-40.05455,219.855-38.83784,7.07526,40.05455Z"
                  transform="translate(-20.49989 -398.75884)"/>
        </g>
    </g>
    <g id="lila">
        <path class="cls-9"
              d="M288.74434,545.63019H695.64083a78.94458,78.94458,0,0,1,78.94458,78.94458V1470.749a78.94465,78.94465,0,0,1-78.94465,78.94465H288.74441a78.94465,78.94465,0,0,1-78.94465-78.94465V624.57477a78.94458,78.94458,0,0,1,78.94458-78.94458Z"
              transform="translate(-478.38956 -12.30245) rotate(-30)"/>
        <ellipse class="cls-10" cx="492.0257" cy="1047.37238" rx="227.8187" ry="397.61243"
                 transform="translate(-681.53812 551.03406) rotate(-60)"/>
        <circle class="cls-11" cx="439.21892" cy="187.3155" r="47.26685"/>
        <line class="cls-11" x1="393.98034" y1="175.4568" x2="483.78733" y2="198.73095"/>
        <circle class="cls-11" cx="506.3098" cy="1106.74853" r="47.26685"/>
        <line class="cls-11" x1="461.6258" y1="1094.5705" x2="551.43179" y2="1117.84465"/>
        <circle class="cls-12" cx="470.46742" cy="648.78899" r="169.4357"/>
        <line class="cls-12" x1="308.30278" y1="606.28088" x2="630.22834" y2="689.711"/>
    </g>
</svg>